<?xml version="1.0" standalone="no"?>
<!DOCTYPE svg PUBLIC "-//W3C//DTD SVG 20010904//EN"
 "http://www.w3.org/TR/2001/REC-SVG-20010904/DTD/svg10.dtd">
<svg version="1.0" xmlns="http://www.w3.org/2000/svg"
 width="250.000000pt" height="250.000000pt" viewBox="0 0 250.000000 250.000000"
 preserveAspectRatio="xMidYMid meet">

<g transform="translate(0.000000,250.000000) scale(0.100000,-0.100000)"
fill="#000000" stroke="none">
<path d="M172 1534 l3 -959 23 -49 c12 -28 34 -64 47 -82 39 -50 159 -125 285
-177 215 -87 699 -267 720 -267 33 0 701 255 817 311 124 61 191 120 230 204
l28 60 3 959 3 959 -33 -6 c-523 -91 -722 -112 -1053 -111 -137 0 -299 6 -360
12 -252 29 -298 35 -470 63 -99 17 -195 33 -213 36 l-33 6 3 -959z m290 811
c300 -53 484 -69 778 -70 203 0 317 5 435 18 138 16 429 61 533 83 l32 7 0
-231 0 -231 -52 -10 c-459 -91 -873 -121 -1238 -91 -164 14 -459 54 -588 81
-52 10 -96 19 -98 19 -2 0 -4 104 -4 231 l0 232 33 -7 c17 -4 94 -18 169 -31z
m760 -682 l28 -27 28 27 28 27 167 0 167 0 0 -275 0 -275 -163 0 c-161 0 -164
0 -187 -25 -13 -14 -31 -25 -40 -25 -9 0 -27 11 -40 25 -23 25 -26 25 -187 25
l-163 0 0 275 0 275 167 0 167 0 28 -27z m-429 -605 c6 -4 97 -8 201 -7 l188
1 27 -26 c34 -32 51 -33 81 -1 l23 25 204 0 203 0 2 295 3 296 35 -26 35 -26
5 -309 5 -310 -236 0 -235 0 -34 -35 c-19 -19 -41 -35 -50 -35 -9 0 -31 16
-50 35 l-34 35 -233 0 -233 0 0 308 0 309 38 26 37 27 3 -287 c2 -214 5 -289
15 -295z m-363 492 c69 -11 137 -23 153 -26 l27 -6 0 -189 0 -188 -27 4 c-16
3 -90 17 -165 30 -76 14 -142 25 -148 25 -6 0 -10 67 -10 191 l0 191 23 -5
c12 -3 78 -15 147 -27z m1810 -158 l0 -188 -92 -18 c-51 -9 -130 -23 -175 -30
l-83 -13 0 188 0 188 38 6 c20 4 91 17 157 30 66 12 128 23 138 24 16 1 17
-14 17 -187z m-1690 -546 c353 -56 668 -75 915 -57 242 18 570 63 738 100 l37
9 0 -122 c0 -139 -14 -201 -59 -264 -34 -46 -124 -111 -208 -149 -86 -40 -706
-275 -723 -275 -18 0 -622 229 -713 270 -92 42 -183 106 -218 154 -45 63 -59
125 -59 263 l0 122 68 -13 c37 -8 137 -25 222 -38z"/>
<path d="M600 2235 c-7 -16 -18 -46 -25 -65 -12 -35 -13 -35 -81 -40 l-69 -5
56 -40 56 -40 -18 -50 c-30 -85 -26 -89 38 -45 33 24 61 37 67 32 6 -5 30 -23
54 -41 24 -19 45 -32 47 -29 2 2 -5 30 -16 62 -10 33 -19 62 -19 66 0 3 24 24
54 46 l55 39 -71 5 -71 5 -23 65 -22 65 -12 -30z"/>
<path d="M1864 2198 l-20 -63 -69 -5 -70 -5 53 -38 c28 -21 52 -44 51 -50 0
-7 -8 -37 -18 -67 -10 -30 -17 -57 -16 -58 2 -2 28 14 58 37 l55 40 56 -40
c63 -45 67 -40 37 46 l-18 50 56 40 56 40 -71 3 -70 3 -13 48 c-7 27 -18 57
-25 66 -10 14 -15 7 -32 -47z"/>
<path d="M1225 2140 l-18 -59 -75 -3 -76 -3 57 -39 c31 -22 57 -45 57 -51 0
-7 -9 -38 -20 -70 -11 -32 -20 -60 -20 -62 0 -2 27 15 60 39 l60 42 59 -41 59
-41 -14 47 c-30 95 -31 92 30 136 l56 40 -74 3 -74 3 -16 59 c-10 33 -21 60
-25 60 -4 0 -16 -27 -26 -60z"/>
<path d="M585 770 c-14 -16 -16 -29 -11 -77 19 -160 21 -168 38 -171 13 -3 17
8 22 55 3 32 8 84 12 116 5 47 3 62 -12 78 -21 24 -27 24 -49 -1z"/>
<path d="M1866 771 c-15 -16 -17 -31 -12 -78 4 -32 9 -84 12 -115 6 -58 9 -64
31 -50 18 11 29 227 13 247 -16 20 -23 19 -44 -4z"/>
<path d="M1221 716 c-22 -23 -23 -30 -17 -113 4 -48 9 -123 12 -165 5 -74 7
-78 30 -78 22 0 24 4 24 54 0 29 7 73 15 96 8 23 15 75 15 115 0 62 -3 74 -23
93 -29 27 -29 27 -56 -2z"/>
<path d="M430 639 c0 -11 5 -29 10 -40 10 -17 13 -18 34 -4 21 14 24 13 38 -2
9 -10 18 -29 20 -43 2 -14 11 -26 21 -28 14 -3 17 4 17 42 0 66 -28 96 -92 96
-42 0 -48 -3 -48 -21z"/>
<path d="M672 632 c-28 -34 -28 -105 1 -110 13 -3 17 3 17 26 0 16 8 36 18 45
16 15 21 15 38 3 25 -19 44 -3 44 35 0 28 -2 29 -47 29 -40 0 -52 -5 -71 -28z"/>
<path d="M1710 630 c0 -35 19 -47 48 -31 25 13 52 -14 52 -53 0 -21 4 -27 18
-24 28 5 28 72 0 108 -19 24 -30 29 -70 29 -47 1 -48 0 -48 -29z"/>
<path d="M1952 635 c-27 -31 -32 -115 -7 -115 9 0 18 12 21 28 3 15 12 36 19
46 13 17 16 18 38 3 30 -19 47 -6 47 35 0 27 -2 28 -48 28 -39 0 -53 -5 -70
-25z"/>
<path d="M990 517 c0 -21 8 -41 20 -52 20 -18 22 -18 51 -1 30 18 30 18 55 -9
16 -17 24 -38 24 -61 0 -30 3 -34 25 -34 24 0 25 2 25 63 0 58 -3 66 -33 95
-30 30 -38 32 -100 32 l-67 0 0 -33z"/>
<path d="M1341 515 c-27 -31 -31 -43 -31 -95 0 -57 1 -60 25 -60 22 0 25 5 25
33 0 18 10 44 23 61 l24 29 31 -18 c30 -18 32 -18 52 0 12 11 20 31 20 52 l0
33 -69 0 c-66 0 -70 -1 -100 -35z"/>
<path d="M504 485 c-8 -21 37 -57 54 -43 6 6 12 21 12 34 0 20 -5 24 -30 24
-18 0 -33 -6 -36 -15z"/>
<path d="M595 488 c-13 -44 -13 -85 1 -103 15 -20 15 -20 34 5 12 16 15 29 9
35 -5 5 -9 24 -9 42 0 23 -5 33 -15 33 -9 0 -17 -6 -20 -12z"/>
<path d="M650 482 c0 -10 6 -26 13 -35 11 -16 14 -16 35 -2 12 9 22 25 22 36
0 15 -7 19 -35 19 -27 0 -35 -4 -35 -18z"/>
<path d="M1780 480 c0 -38 54 -55 65 -20 9 29 -2 41 -36 38 -19 -1 -29 -8 -29
-18z"/>
<path d="M1870 467 c0 -18 -4 -37 -9 -42 -6 -6 -3 -19 9 -35 19 -25 19 -25 34
-5 9 11 14 29 11 40 -3 11 -5 32 -5 48 0 20 -5 27 -20 27 -16 0 -20 -7 -20
-33z"/>
<path d="M1930 476 c0 -37 21 -48 49 -27 32 24 22 51 -19 51 -25 0 -30 -4 -30
-24z"/>
<path d="M1100 296 c0 -15 11 -33 27 -45 24 -20 27 -20 45 -5 10 10 18 30 18
46 0 27 -2 28 -45 28 -41 0 -45 -2 -45 -24z"/>
<path d="M1220 279 c0 -22 -5 -49 -10 -60 -8 -15 -6 -25 12 -49 12 -16 25 -30
28 -30 3 0 16 13 28 30 21 28 22 32 7 59 -8 17 -15 44 -15 61 0 25 -4 30 -25
30 -23 0 -25 -4 -25 -41z"/>
<path d="M1310 292 c0 -16 9 -37 20 -47 20 -18 21 -18 45 5 14 13 25 34 25 47
0 21 -5 23 -45 23 -43 0 -45 -1 -45 -28z"/>
</g>
</svg>
